<?xml version="1.0" encoding="utf-8"?>
<svg id="master-artboard" viewBox="0 0 1400 980" version="1.1" xmlns="http://www.w3.org/2000/svg" x="0px" y="0px" enable-background="new 0 0 1400 980" width="1400px" height="980px">
<g transform="matrix(1, 0, 0, 1, -56.697401277209735, -24.891542024140822)">
			<g>
				<path fill="#F37027" d="M438.9,451.7c-34.9-34.9-91.6-34.9-126.5,0s-34.9,91.6,0,126.5c32.6,32.6,84,34.8,119.1,6.6l116.3,116.3&#10;&#9;&#9;&#9;&#9;&#9;c-2.1,7.1-0.4,15.1,5.2,20.8l100.8,100.8c8.1,8.1,21.4,8.1,29.5,0c8.1-8.1,8.1-21.4,0-29.5L582.5,692.4&#10;&#9;&#9;&#9;&#9;&#9;c-5.6-5.6-13.6-7.4-20.8-5.2L445.5,570.9C473.7,535.7,471.5,484.3,438.9,451.7z M414.4,525.9c-3.6-0.4-6.2-3.6-5.8-7.2&#10;&#9;&#9;&#9;&#9;&#9;c0.4-3.6,3.6-6.2,7.2-5.8c3.6,0.4,6.2,3.6,5.8,7.2c-0.2,1.5-0.9,2.9-1.9,3.9C418.4,525.4,416.4,526.1,414.4,525.9z M448.6,534.5&#10;&#9;&#9;&#9;&#9;&#9;c-0.3,1.1-0.9,2.1-1.7,2.9c-1.6,1.6-4,2.3-6.3,1.7c-3.5-0.9-5.5-4.5-4.6-8l0,0c0.9-3.5,4.5-5.5,8-4.6&#10;&#9;&#9;&#9;&#9;&#9;C447.5,527.5,449.6,531,448.6,534.5z M448.6,495.4c0.6,2.3-0.1,4.7-1.7,6.3c-0.8,0.8-1.8,1.4-2.9,1.7c-3.5,0.9-7.1-1.1-8-4.6&#10;&#9;&#9;&#9;&#9;&#9;c-0.9-3.5,1.1-7.1,4.6-8C444.1,489.9,447.7,491.9,448.6,495.4z M428.9,461.4C429,461.5,429,461.5,428.9,461.4&#10;&#9;&#9;&#9;&#9;&#9;c0.1,0.1,0.1,0.1,0.1,0.1c2.5,2.5,2.6,6.7,0,9.2c-2.5,2.5-6.7,2.5-9.2,0c0,0-0.1-0.1-0.1-0.1c-2.6-2.5-2.6-6.7,0-9.2&#10;&#9;&#9;&#9;&#9;&#9;C422.3,458.9,426.4,458.9,428.9,461.4z M387.1,446.6c0.9-3.5,4.5-5.6,8-4.6c3.5,0.9,5.6,4.5,4.6,8c-0.3,1.2-0.9,2.2-1.7,2.9&#10;&#9;&#9;&#9;&#9;&#9;c-1.6,1.6-4,2.3-6.3,1.7C388.2,453.6,386.2,450.1,387.1,446.6z M408.2,482.2C408.2,482.2,408.2,482.2,408.2,482.2&#10;&#9;&#9;&#9;&#9;&#9;c0.1,0.1,0.1,0.1,0.1,0.1c2.5,2.5,2.6,6.7,0,9.2c-2.5,2.5-6.7,2.5-9.2,0c0,0,0,0-0.1-0.1c0,0,0,0,0,0c-2.6-2.5-2.6-6.7,0-9.2&#10;&#9;&#9;&#9;&#9;&#9;C401.5,479.6,405.6,479.6,408.2,482.2z M351.4,450c-0.9-3.5,1.1-7,4.6-8c3.5-0.9,7.1,1.1,8,4.6c0.6,2.3-0.1,4.7-1.7,6.3&#10;&#9;&#9;&#9;&#9;&#9;c-0.8,0.8-1.8,1.4-2.9,1.7C355.9,455.6,352.3,453.5,351.4,450z M364.6,476.3c-0.4-3.6,2.2-6.8,5.7-7.2c3.6-0.4,6.8,2.2,7.2,5.7&#10;&#9;&#9;&#9;&#9;&#9;c0.2,2.1-0.5,4-1.9,5.4c-1,1-2.3,1.7-3.9,1.9C368.2,482.4,365,479.9,364.6,476.3z M322.1,461.7c2.6-2.6,6.7-2.6,9.2,0&#10;&#9;&#9;&#9;&#9;&#9;c2.5,2.5,2.6,6.7,0,9.2c-2.5,2.6-6.7,2.6-9.2,0C319.6,468.3,319.6,464.2,322.1,461.7z M302.6,495.5c0.9-3.5,4.5-5.6,8-4.6&#10;&#9;&#9;&#9;&#9;&#9;c3.5,0.9,5.5,4.5,4.6,8c-0.3,1.1-0.9,2.2-1.7,2.9c-1.6,1.6-4,2.3-6.3,1.7C303.8,502.6,301.7,499,302.6,495.5z M302.7,534.6&#10;&#9;&#9;&#9;&#9;&#9;C302.7,534.6,302.7,534.6,302.7,534.6c-0.9-3.5,1.1-7.1,4.6-8c3.5-0.9,7.1,1.1,8,4.6c0.6,2.3-0.1,4.7-1.7,6.3&#10;&#9;&#9;&#9;&#9;&#9;c-0.8,0.8-1.8,1.4-2.9,1.7C307.2,540.2,303.6,538.1,302.7,534.6z M322.3,568.5c-2.5-2.5-2.6-6.7,0-9.2c2.5-2.5,6.7-2.6,9.2,0&#10;&#9;&#9;&#9;&#9;&#9;c2.5,2.5,2.6,6.7,0,9.2C329,571,324.8,571,322.3,568.5z M364.1,583.4c-0.3,1.1-0.9,2.1-1.7,2.9c-1.6,1.6-4,2.3-6.3,1.7&#10;&#9;&#9;&#9;&#9;&#9;c-3.5-0.9-5.5-4.5-4.6-8c0.9-3.5,4.5-5.6,8-4.6C363,576.3,365.1,579.9,364.1,583.4z M332,530.4c-1.2-3.4,0.6-7.1,4-8.3&#10;&#9;&#9;&#9;&#9;&#9;c3.4-1.2,7.1,0.6,8.3,4c0.9,2.4,0.2,5.1-1.5,6.8c-0.7,0.7-1.5,1.2-2.4,1.5C336.9,535.5,333.2,533.8,332,530.4z M356.4,550.4&#10;&#9;&#9;&#9;&#9;&#9;c1.2-3.4,4.9-5.2,8.3-4c3.4,1.2,5.2,4.9,4,8.3c-0.3,1-0.9,1.8-1.5,2.5c-1.7,1.7-4.3,2.4-6.8,1.6&#10;&#9;&#9;&#9;&#9;&#9;C357.1,557.5,355.3,553.8,356.4,550.4z M399.9,580c0.6,2.3-0.1,4.7-1.7,6.3c-0.8,0.8-1.8,1.4-2.9,1.7c-3.5,0.9-7.1-1.1-8-4.6&#10;&#9;&#9;&#9;&#9;&#9;c-0.9-3.5,1.1-7.1,4.6-8C395.4,574.4,398.9,576.5,399.9,580z M336.4,490.5c1.9-3.1,5.9-4,9-2.1c3.1,1.9,4,5.9,2.1,9&#10;&#9;&#9;&#9;&#9;&#9;c-0.3,0.4-0.6,0.8-0.9,1.2c-2.1,2.1-5.4,2.6-8.1,0.9C335.4,497.6,334.5,493.5,336.4,490.5z M400.3,554.1c-3,1.9-7.1,1-9-2&#10;&#9;&#9;&#9;&#9;&#9;s-1-7.1,2-9c3-1.9,7.1-1,9,2c1.7,2.6,1.2,6-0.9,8.1C401.1,553.5,400.7,553.9,400.3,554.1z M429.1,568.4c-2.5,2.5-6.7,2.5-9.2,0&#10;&#9;&#9;&#9;&#9;&#9;c-2.5-2.5-2.6-6.7,0-9.2c2.5-2.6,6.7-2.6,9.2,0C431.6,561.7,431.6,565.8,429.1,568.4z"/>
				<path fill="#F37027" d="M1110.3,493.5l-48.9-53.2c-5-5.5-13.5-5.8-19-0.8l-70.9,65.2c-13.8,12.7-14.7,34.2-2,48l3.9,4.2&#10;&#9;&#9;&#9;&#9;&#9;L826.7,691.7c-7-2.4-15.1-1-21,4.4l-104.9,96.5c-8.5,7.8-9,21-1.2,29.5s21,9,29.5,1.2L834,726.8c5.8-5.4,7.9-13.3,6.1-20.5&#10;&#9;&#9;&#9;&#9;&#9;l146.6-134.8l3.9,4.2c12.7,13.8,34.2,14.7,48,2l70.9-65.2C1114.9,507.5,1115.3,499,1110.3,493.5z M985.6,532.3&#10;&#9;&#9;&#9;&#9;&#9;c-2.7,2.4-6.8,2.3-9.2-0.4c-2.4-2.7-2.3-6.8,0.4-9.2l67.4-61.9c2.7-2.4,6.8-2.3,9.2,0.4c2.4,2.7,2.3,6.8-0.4,9.2L985.6,532.3z&#10;&#9;&#9;&#9;&#9;&#9; M1003.3,551.6c-2.7,2.4-6.8,2.3-9.2-0.4s-2.3-6.8,0.4-9.2l67.4-61.9c2.7-2.4,6.8-2.3,9.2,0.4s2.3,6.8-0.4,9.2L1003.3,551.6z&#10;&#9;&#9;&#9;&#9;&#9; M1021.1,570.9c-2.7,2.4-6.8,2.3-9.2-0.4c-2.4-2.7-2.3-6.8,0.4-9.2l67.4-61.9c2.7-2.4,6.8-2.3,9.2,0.4c2.4,2.7,2.3,6.8-0.4,9.2&#10;&#9;&#9;&#9;&#9;&#9;L1021.1,570.9z"/>
			</g>
			<g>
				<g>
					<g>
						<path fill="#F37027" d="M840.8,500.3v-33.6c-38.8-14.3-89.9-22.1-144.3-22.1c-54,0-104.8,7.7-143.6,21.8l0.2,34.9&#10;&#9;&#9;&#9;&#9;&#9;&#9;&#9;c13-5.2,39-14.1,75.9-19.6C676.4,474.6,751.1,472.3,840.8,500.3z"/>
						<path fill="#F37027" d="M696.5,431.5c53.8,0,104.7,7.5,144.3,21.3V335.9c-1.2,0-2.3,0.1-3.5,0.1c-24.5,0-47.9-8.2-66.9-23.3&#10;&#9;&#9;&#9;&#9;&#9;&#9;&#9;c-21.2,14.9-46.9,23.3-74,23.3c-26.6,0-52.4-8.2-74-23.4c-18.4,14.6-41.6,23.4-66.8,23.4c-1.1,0-2.3,0-3.4-0.1l0.6,116.7&#10;&#9;&#9;&#9;&#9;&#9;&#9;&#9;C592.4,438.9,643,431.5,696.5,431.5z"/>
						<g>
							<g>
								<path fill="#F37027" d="M837.4,134.2c-10.6,0-21.2,1.8-31.1,5.3c6.8,11,11.8,22.8,15.1,35.3c0.9,3.5-1.2,7-4.7,7.9&#10;&#9;&#9;&#9;&#9;&#9;&#9;&#9;&#9;&#9;c-0.5,0.1-1.1,0.2-1.6,0.2c-2.9,0-5.5-2-6.3-4.9c-3.5-13.6-9.5-26.4-17.6-37.9c-21.7-30.6-57.1-48.9-94.5-48.9&#10;&#9;&#9;&#9;&#9;&#9;&#9;&#9;&#9;&#9;c-38.8,0-74.8,19.3-96.4,51.5c-0.6,0.9-8.3,14.1-11.2,33.4c-0.5,3.6-3.8,6-7.4,5.5c-3.6-0.5-6-3.8-5.5-7.4&#10;&#9;&#9;&#9;&#9;&#9;&#9;&#9;&#9;&#9;c2.4-16.4,7.9-28.8,11-34.7c-10-3.5-20.6-5.4-31.4-5.4c-52,0-94.4,42.3-94.4,94.4c0,48.6,37,88.8,84.3,93.8c0,0,0,0,0.1,0&#10;&#9;&#9;&#9;&#9;&#9;&#9;&#9;&#9;&#9;c0,0,0,0,0,0c0.5,0,0.9,0.1,1.4,0.1c2.8,0.3,5.7,0.4,8.6,0.4c52,0,94.4-42.3,94.4-94.4c0-3.6,2.9-6.5,6.5-6.5&#10;&#9;&#9;&#9;&#9;&#9;&#9;&#9;&#9;&#9;s6.5,2.9,6.5,6.5c0,29.2-11.7,55.6-30.6,75c18.9,12.5,41.1,19.3,64.1,19.3c46.1,0,87.9-27.3,106.3-69.7&#10;&#9;&#9;&#9;&#9;&#9;&#9;&#9;&#9;&#9;c1.4-3.3,5.3-4.8,8.6-3.4c3.3,1.4,4.8,5.3,3.4,8.6c-7.8,18-19.4,33.5-33.6,45.9c16.2,12.1,35.8,18.6,56.3,18.6&#10;&#9;&#9;&#9;&#9;&#9;&#9;&#9;&#9;&#9;c2.9,0,5.8-0.1,8.6-0.4c0.4-0.1,0.9-0.1,1.4-0.1c0,0,0.1,0,0.1,0c47.3-5,84.3-45.2,84.3-93.8&#10;&#9;&#9;&#9;&#9;&#9;&#9;&#9;&#9;&#9;C931.7,176.5,889.4,134.2,837.4,134.2z M838.9,310.4c-3.9,0-7-3.1-7-7c0-3.9,3.1-7,7-7c36.6,0,66.4-29.8,66.4-66.4&#10;&#9;&#9;&#9;&#9;&#9;&#9;&#9;&#9;&#9;c0-3.9,3.1-7,7-7s7,3.1,7,7C919.3,274.3,883.2,310.4,838.9,310.4z"/>
							</g>
						</g>
					</g>
				</g>
				<g>
					<path fill="#F37027" d="M835.1,615.2c4.1-13.3,6.3-27.5,6.3-42.2v-59l-4.5-1.4c-2.9-0.9-5.7-1.8-8.6-2.6v62.9&#10;&#9;&#9;&#9;&#9;&#9;&#9;c0,16.6-3.1,32.5-8.7,47.1C827.8,619.2,832.5,617.1,835.1,615.2z"/>
					<path fill="#F37027" d="M573.4,620.2c-5.6-14.6-8.7-30.5-8.7-47.1v-62.2c-2.6,0.9-4.8,1.8-6.7,2.5l-6.4,2.6v57.1&#10;&#9;&#9;&#9;&#9;&#9;&#9;c0,14.7,2.2,28.8,6.3,42.2C560.6,617.1,565.3,619.2,573.4,620.2z"/>
					<path fill="#F37027" d="M799,670.6L799,670.6c-4.3,0-8.7-0.2-13.3-0.6c-23.5,21.6-54.8,34.9-89.2,34.9&#10;&#9;&#9;&#9;&#9;&#9;&#9;c-34.4,0-65.7-13.2-89.2-34.9c-4.6,0.4-9,0.6-13.2,0.6c-1.6,0-3.1,0-4.6-0.1c26.5,29.1,64.7,47.4,107.1,47.4&#10;&#9;&#9;&#9;&#9;&#9;&#9;c42.4,0,80.6-18.3,107.1-47.4C802.1,670.6,800.6,670.6,799,670.6z"/>
				</g>
				<g>
					<path fill="#F37027" d="M910,307.6c-7.2,6.6-15.2,12.2-23.7,16.6c47.4,37.4,83.2,88.9,101.3,148l22.5-20.7&#10;&#9;&#9;&#9;&#9;&#9;&#9;C990.3,394.8,955.3,345.2,910,307.6z"/>
					<path fill="#F37027" d="M1015.5,599.7C1015.5,599.7,1015.5,599.7,1015.5,599.7c-5.9,0-11.6-1.1-17-3.2&#10;&#9;&#9;&#9;&#9;&#9;&#9;C980.6,745.5,853.8,861,700,861c-147.9,0-270.9-106.8-296.1-247.5c-8.9,2.6-18.2,3.9-27.5,4C403.5,771.6,538.1,888.8,700,888.8&#10;&#9;&#9;&#9;&#9;&#9;&#9;c168.5,0,307.4-126.9,326.4-290.3C1022.8,599.3,1019.2,599.7,1015.5,599.7z"/>
					<path fill="#F37027" d="M511.1,326.2c-8.9-4.1-17.2-9.3-24.7-15.7c-34.1,29.2-62.1,65.3-82,106c9,2.6,17.5,6.4,25.4,11.4&#10;&#9;&#9;&#9;&#9;&#9;&#9;C449.3,388.4,477.1,353.7,511.1,326.2z"/>
				</g>
				<path fill="#F37027" d="M862.9,608.5c-7.4-17.6-21.6-12.2-21.6-12.2s9.5,2.7,10.8,9.5c1.4,6.8-1.4,25-34.5,27.7&#10;&#9;&#9;&#9;&#9;&#9;c-33.1,2.7-62.9-55.5-88.6-60.2c-25.7-4.7-32.5,10.8-32.5,10.8s-6.8-15.6-32.5-10.8c-25.7,4.7-55.5,62.9-88.6,60.2&#10;&#9;&#9;&#9;&#9;&#9;s-35.8-21-34.5-27.7c1.4-6.8,10.8-9.5,10.8-9.5s-14.2-5.4-21.6,12.2c-7.4,17.6,9.5,41.9,48.7,48c39.2,6.1,112.9-14.2,117.7-50&#10;&#9;&#9;&#9;&#9;&#9;c4.7,35.8,78.4,56.1,117.7,50C853.4,650.4,870.3,626.1,862.9,608.5z"/>
			</g>
		</g>
</svg>